<svg xmlns="http://www.w3.org/2000/svg" enable-background="new 0 0 24 24" viewBox="0 0 24 24" id="contact">
  <g id="Layer_2">
    <ellipse cx="12.52" cy="13.002" rx="2.332" ry="2.216"></ellipse>
    <path d="M4,17c0,0.5527,0.4473,1,1,1c0,2.2061,1.7939,4,4,4h1.0176h4.9648H16c2.2061,0,4-1.7939,4-4V6c0-2.2061-1.7939-4-4-4H9
			C6.7939,2,5,3.7939,5,6C4.4473,6,4,6.4473,4,7s0.4473,1,1,1v3c-0.5527,0-1,0.4473-1,1s0.4473,1,1,1v3C4.4473,16,4,16.4473,4,17z
			 M12.5,20l-2.4951-0.0898l0.2949-1.0791C10.4336,18.3418,10.8545,18,11.3242,18h2.3516c0.4697,0,0.8906,0.3418,1.0244,0.8301
			L14.9824,20H12.5z M7,16v-3c0.5527,0,1-0.4473,1-1s-0.4473-1-1-1V8c0.5527,0,1-0.4473,1-1S7.5527,6,7,6c0-1.1025,0.8975-2,2-2h7
			c1.1025,0,2,0.8975,2,2v12c0,0.7452-0.4148,1.389-1.0211,1.7331c-0.0118-0.1169-0.0225-0.2341-0.0541-0.3503l-0.2949-1.0811
			C16.2578,16.9463,15.0439,16,13.6758,16h-2.3516c-1.3682,0-2.582,0.9463-2.9541,2.3027l-0.2949,1.0801
			c-0.0317,0.1161-0.0423,0.2333-0.0541,0.3503C7.4148,19.389,7,18.7452,7,18c0.5527,0,1-0.4473,1-1S7.5527,16,7,16z"></path>
  </g>
</svg>
