<?xml version="1.0" standalone="no"?>
<!DOCTYPE svg PUBLIC "-//W3C//DTD SVG 20010904//EN"
 "http://www.w3.org/TR/2001/REC-SVG-20010904/DTD/svg10.dtd">
<svg version="1.0" xmlns="http://www.w3.org/2000/svg"
 width="512.000000pt" height="512.000000pt" viewBox="0 0 512.000000 512.000000"
 preserveAspectRatio="xMidYMid meet">

<g transform="translate(0.000000,512.000000) scale(0.100000,-0.100000)"
fill="#000000" stroke="none">
<path d="M2507 4652 c-14 -16 -17 -43 -17 -174 l0 -155 -71 -42 -70 -42 -131
75 c-126 74 -149 83 -182 70 -15 -6 -323 -512 -339 -557 -14 -38 11 -63 142
-141 l131 -78 0 -93 0 -93 -117 -67 c-134 -76 -163 -100 -163 -129 0 -18 291
-536 322 -573 23 -28 71 -13 199 62 l129 74 57 -32 c32 -18 66 -36 76 -40 15
-6 17 -23 17 -164 0 -87 4 -163 8 -169 20 -31 54 -34 365 -34 295 0 316 1 338
19 23 19 24 25 27 179 l4 160 66 39 c36 21 69 37 72 36 4 -1 65 -36 136 -78
71 -41 136 -75 145 -75 9 0 26 8 37 18 18 15 313 507 328 546 16 42 -4 63
-141 143 l-135 78 0 95 1 95 122 70 c135 78 157 95 157 127 0 24 -303 556
-328 576 -29 23 -60 12 -190 -63 l-130 -75 -76 41 -76 41 0 157 c0 140 -2 160
-18 174 -17 15 -56 17 -349 17 -307 0 -331 -1 -346 -18z m583 -247 c0 -75 5
-145 11 -158 6 -14 35 -35 67 -51 32 -15 84 -45 118 -67 33 -21 71 -39 85 -39
13 0 77 31 141 69 84 50 120 66 126 58 18 -23 222 -378 222 -387 0 -5 -54 -39
-120 -77 -71 -40 -123 -76 -126 -88 -7 -21 -12 -293 -6 -312 2 -7 59 -45 126
-84 66 -40 123 -73 125 -75 3 -3 -218 -381 -235 -402 -1 -2 -56 28 -122 67
-66 39 -131 71 -145 71 -15 0 -57 -20 -94 -44 -37 -24 -89 -53 -115 -64 -32
-14 -49 -28 -53 -44 -3 -13 -6 -84 -8 -158 l-2 -135 -232 -3 -232 -2 -3 157
-3 158 -85 45 c-47 25 -101 57 -121 73 -20 15 -46 27 -58 27 -12 0 -76 -31
-144 -70 -113 -65 -123 -69 -135 -52 -24 31 -225 383 -221 386 2 1 54 33 115
69 61 37 117 74 124 82 9 11 13 60 15 163 0 81 -1 153 -3 160 -2 7 -59 45
-126 84 -66 40 -123 73 -125 75 -3 2 220 383 235 402 2 2 55 -29 118 -68 63
-38 125 -73 138 -76 16 -4 40 6 83 35 32 23 85 53 116 67 35 16 62 36 68 50 6
13 11 83 11 158 l0 135 235 0 235 0 0 -135z"/>
<path d="M2443 3925 c-195 -60 -328 -274 -295 -472 31 -188 169 -329 355 -363
214 -40 445 136 476 360 10 75 2 106 -34 122 -51 23 -95 -21 -95 -97 0 -54
-58 -154 -114 -196 -202 -153 -481 -11 -479 243 1 63 32 142 77 195 37 44 138
93 191 93 78 0 125 70 77 113 -23 21 -98 22 -159 2z"/>
<path d="M1775 2293 c-53 -48 -98 -98 -102 -111 -3 -14 0 -47 7 -74 6 -27 11
-50 9 -51 -2 -2 -54 -17 -115 -34 -203 -58 -443 -163 -578 -254 -98 -65 -189
-159 -226 -233 -28 -56 -35 -95 -85 -440 -50 -344 -54 -381 -40 -402 33 -51
98 -38 114 23 6 21 31 189 56 373 52 385 58 405 156 493 113 103 328 212 577
293 204 67 173 91 258 -196 73 -244 85 -270 126 -270 11 0 80 25 155 55 75 31
139 52 143 48 10 -11 80 -200 80 -216 0 -7 -54 -186 -120 -397 -66 -211 -120
-392 -120 -401 0 -10 12 -27 27 -38 28 -23 57 -21 84 8 9 9 49 122 88 251 40
129 93 299 117 378 l45 143 121 -3 120 -3 122 -385 c111 -351 124 -386 148
-398 19 -9 34 -9 52 -2 57 21 55 30 -79 455 l-125 395 42 108 c22 59 42 108
43 110 1 1 63 -22 138 -53 75 -30 144 -55 155 -55 41 0 53 26 125 270 l73 245
29 -3 c48 -5 316 -97 417 -144 217 -99 363 -210 412 -311 44 -90 116 -506 116
-668 0 -104 35 -152 94 -129 44 16 48 38 36 188 -21 263 -82 577 -130 672 -95
188 -384 365 -793 487 -67 20 -126 39 -130 43 -4 4 -3 28 4 53 6 26 9 57 5 69
-3 13 -48 62 -101 111 -74 68 -102 87 -125 87 -24 0 -77 -46 -337 -295 -169
-162 -310 -295 -313 -295 -4 0 -145 133 -314 295 -258 248 -312 295 -337 295
-22 0 -50 -20 -124 -87z m373 -310 c136 -131 247 -242 247 -246 0 -11 -408
-176 -416 -168 -3 3 -43 132 -89 287 l-83 281 44 41 c24 23 45 42 47 42 2 0
114 -107 250 -237z m1101 198 l44 -38 -82 -279 c-46 -153 -86 -283 -91 -288
-9 -9 -422 154 -418 166 4 9 491 477 498 477 3 0 25 -17 49 -38z m-599 -567
c50 -20 92 -39 94 -43 2 -3 -13 -49 -33 -101 l-37 -95 -124 0 -124 0 -37 98
-38 99 37 15 c119 51 148 62 159 63 7 0 53 -16 103 -36z"/>
<path d="M3425 985 c-14 -13 -25 -29 -25 -35 0 -16 21 -53 34 -62 6 -4 106 -8
223 -8 179 0 214 2 227 16 27 26 24 71 -6 97 -18 15 -44 17 -225 17 -203 0
-204 0 -228 -25z"/>
</g>
</svg>
