<?xml version="1.0" standalone="no"?>
<!DOCTYPE svg PUBLIC "-//W3C//DTD SVG 20010904//EN"
 "http://www.w3.org/TR/2001/REC-SVG-20010904/DTD/svg10.dtd">
<svg version="1.0" xmlns="http://www.w3.org/2000/svg"
 width="920.000000pt" height="920.000000pt" viewBox="0 0 920.000000 920.000000"
 preserveAspectRatio="xMidYMid meet">

<g transform="translate(0.000000,920.000000) scale(0.100000,-0.100000)"
fill="#000000" stroke="none">
<path d="M4403 9191 c-411 -66 -730 -410 -769 -829 l-7 -71 -681 -3 c-611 -3
-687 -5 -741 -21 -345 -99 -568 -325 -668 -675 l-22 -77 -3 -2790 c-2 -1944 0
-2819 8 -2884 42 -367 292 -664 655 -778 l90 -28 2242 -3 c2192 -2 2245 -2
2332 17 356 78 620 339 708 702 17 70 18 215 18 2909 0 2676 -1 2839 -18 2908
-90 371 -353 629 -720 707 -56 12 -189 15 -721 15 l-653 0 -11 95 c-47 381
-314 691 -677 785 -89 24 -277 34 -362 21z m263 -625 c151 -70 217 -251 146
-401 -67 -141 -221 -206 -373 -158 -72 23 -158 107 -182 177 -56 165 22 335
180 392 63 22 170 18 229 -10z m-1034 -1063 c3 -171 5 -193 26 -238 29 -63 83
-119 147 -153 l50 -27 680 0 680 0 52 24 c62 27 126 93 156 159 19 42 22 69
25 235 l4 188 641 -3 642 -3 65 -36 c39 -21 78 -53 97 -78 68 -88 63 143 63
-2911 0 -3059 5 -2817 -64 -2912 -26 -34 -53 -55 -103 -80 l-68 -33 -2185 0
-2185 0 -67 33 c-77 38 -120 84 -148 160 -20 52 -20 87 -20 2832 0 2758 0
2780 20 2833 37 97 119 168 220 188 19 4 313 7 652 8 l616 1 4 -187z"/>
<path d="M5630 5544 c-47 -21 -152 -122 -725 -694 l-670 -670 -210 211 c-116
116 -230 222 -254 237 -35 21 -60 27 -127 30 -71 4 -89 1 -135 -20 -78 -36
-114 -71 -150 -144 -26 -53 -32 -76 -32 -132 0 -124 2 -127 401 -524 346 -344
359 -355 416 -373 71 -22 152 -16 222 14 40 18 188 161 837 809 884 883 850
844 849 981 -1 220 -226 366 -422 275z"/>
</g>
</svg>
