<svg xmlns="http://www.w3.org/2000/svg" enable-background="new 0 0 32 32" viewBox="0 0 32 32" id="zoom">
  <path d="M30.26688,24.31256l-5.15664-5.15664c-0.58604-0.58604-1.53542-0.58604-2.12145,0l-0.85561,0.85561l-1.9056-1.9056c3.26203-4.30175,2.94307-10.47126-0.97966-14.39355c-4.28246-4.28295-11.2519-4.28295-15.53535,0s-4.28344,11.25239,0,15.53535c2.14148,2.14148,4.95445,3.21246,7.76743,3.21246c2.33957,0,4.67303-0.75196,6.62606-2.23286l1.90566,1.90566l-0.85561,0.85561c-0.58604,0.58555-0.58604,1.53591,0,2.12145l5.15664,5.15664c0.79506,0.79554,1.85236,1.23312,2.97707,1.23312s2.18201-0.43757,2.97707-1.23312C31.06243,29.47164,31.5,28.41433,31.5,27.28963S31.06243,25.10762,30.26688,24.31256z M5.83403,17.12629c-3.11332-3.11332-3.11332-8.17912,0-11.29244c1.5569-1.55642,3.60168-2.33487,5.64598-2.33487c2.04478,0,4.08956,0.77845,5.64646,2.33487c3.11332,3.11332,3.11332,8.17912,0,11.29244C14.01315,20.23912,8.94833,20.23912,5.83403,17.12629z M28.14543,28.14524c-0.47176,0.47176-1.23947,0.47176-1.71123,0l-4.09591-4.09591l1.71123-1.71123l4.09591,4.09591C28.61719,26.90578,28.61719,27.67348,28.14543,28.14524z"></path>
</svg>
