<svg xmlns="http://www.w3.org/2000/svg" viewBox="0 0 512 512" id="audit"><path d="m138.509 443.6-71-.087H67.5a7.5 7.5 0 0 0-.009 15l71 .087h.009a7.5 7.5 0 0 0 .009-15Zm363.283-125.482-51.58-51.579a34.72 34.72 0 0 0-23.048-10.153l-23.12-23.12A120.065 120.065 0 0 0 387.455 84.29q-2.664-2.664-5.456-5.117V37.5A37.542 37.542 0 0 0 344.5 0h-307A37.542 37.542 0 0 0 0 37.5v437A37.542 37.542 0 0 0 37.5 512h255.795c.035 0 .07-.005.104-.005.034 0 .067.005.101.005a7.49 7.49 0 0 0 6.2-3.281l80.062-78.82a7.502 7.502 0 0 0 2.238-5.345V284.01l8.766 8.764a34.719 34.719 0 0 0 10.154 23.056l51.58 51.58a34.855 34.855 0 1 0 49.292-49.293ZM301 486.39V454.5a22.526 22.526 0 0 1 22.5-22.5h32.746ZM367 417h-43.5a37.542 37.542 0 0 0-37.5 37.5V497H37.5A22.526 22.526 0 0 1 15 474.5v-437A22.526 22.526 0 0 1 37.5 15h307A22.526 22.526 0 0 1 367 37.5v30.38a120.002 120.002 0 0 0-165.823 37.217L52.505 105H52.5a7.5 7.5 0 0 0-.005 15l140.66.092a119.448 119.448 0 0 0-5.53 14.994L52.505 135a7.5 7.5 0 0 0-.01 15l131.753.084a120.882 120.882 0 0 0-1.44 15.001L52.506 165a7.5 7.5 0 0 0-.01 15l130.742.085A120.118 120.118 0 0 0 251 277.453v76.128l-30-.014v-71.455a22.526 22.526 0 0 0-22.5-22.5h-15a22.526 22.526 0 0 0-22.5 22.5v71.429l-30-.013v-41.416a22.526 22.526 0 0 0-22.5-22.5h-15a22.526 22.526 0 0 0-22.5 22.5v41.39l-20.497-.01H50.5a7.5 7.5 0 0 0-.003 15l26.78.012a7.508 7.508 0 0 0 1.223.108h45a7.534 7.534 0 0 0 1.086-.087l42.952.019a7.538 7.538 0 0 0 .962.068h45a7.584 7.584 0 0 0 .827-.048l43.605.02c.188.014.376.028.568.028h45c.057 0 .112-.007.168-.008l30.33.013H334a7.5 7.5 0 0 0 .003-15l-23.003-.01v-64.829a118.845 118.845 0 0 0 56-18.395ZM206 282.112v71.449l-30-.013v-71.436a7.508 7.508 0 0 1 7.5-7.5h15a7.508 7.508 0 0 1 7.5 7.5Zm-90 30v41.409l-30-.013v-41.396a7.508 7.508 0 0 1 7.5-7.5h15a7.508 7.508 0 0 1 7.5 7.5Zm150 41.475v-70.195a119.828 119.828 0 0 0 30 5.492V353.6Zm110.849-110.259a106.38 106.38 0 0 1-12.25 10.519c-.08.051-.154.112-.231.167a105.261 105.261 0 0 1-102.478 11.88 7.44 7.44 0 0 0-.867-.372 104.966 104.966 0 1 1 127.46-35.986 7.404 7.404 0 0 0-.414.573 106.294 106.294 0 0 1-11.22 13.22Zm17.683 32-14.54-14.534q3.848-3.259 7.463-6.86 4.043-4.042 7.646-8.396l14.612 14.612a34.748 34.748 0 0 0-15.18 15.179Zm96.653 81.476a19.852 19.852 0 0 1-28.078 0l-51.58-51.58a19.854 19.854 0 0 1 28.077-28.077l51.58 51.579a19.875 19.875 0 0 1 0 28.078ZM127.49 60l97 .113h.009a7.5 7.5 0 0 0 .009-15l-97-.113h-.009a7.5 7.5 0 0 0-.009 15Zm119.033 323.6-55-.087h-.024a15.5 15.5 0 0 0-15.5 15.5v14a15.523 15.523 0 0 0 15.476 15.5l55 .087h.024a15.499 15.499 0 0 0 15.5-15.5v-14a15.523 15.523 0 0 0-15.476-15.5Zm.476 29.5a.475.475 0 0 1-.146.353.42.42 0 0 1-.355.147l-55-.087a.5.5 0 0 1-.499-.5v-14a.5.5 0 0 1 .501-.5l55 .087a.5.5 0 0 1 .499.5Zm-116.476-29.5-55-.087H75.5a15.5 15.5 0 0 0-15.5 15.5v14a15.523 15.523 0 0 0 15.476 15.5l55 .087h.024a15.499 15.499 0 0 0 15.5-15.5v-14a15.523 15.523 0 0 0-15.476-15.5Zm.476 29.5a.475.475 0 0 1-.146.353.424.424 0 0 1-.355.147l-55-.087a.5.5 0 0 1-.499-.5v-14a.477.477 0 0 1 .147-.354.552.552 0 0 1 .354-.146l55 .087a.5.5 0 0 1 .499.5ZM302.634 85.664a83.449 83.449 0 1 0 59.033 24.417 82.92 82.92 0 0 0-59.033-24.417Zm7.186 151.513a68.615 68.615 0 0 1-42.32-9.28V180.14a7.508 7.508 0 0 1 7.5-7.5h27.32a7.508 7.508 0 0 1 7.5 7.5Zm41.24-19.638a68.051 68.051 0 0 1-26.24 16.347V180.14a22.526 22.526 0 0 0-22.5-22.5H275a22.526 22.526 0 0 0-22.5 22.5v35.604a68.706 68.706 0 0 1-13.02-73.155l75.01.107h.01a7.5 7.5 0 0 0 .01-15l-66.335-.095a69.167 69.167 0 0 1 6.034-6.914 68.484 68.484 0 0 1 96.85 96.852Zm-96.55 226.06-67.794-.086h-.01a7.5 7.5 0 0 0-.01 15l67.794.087h.01a7.5 7.5 0 0 0 .01-15Z"></path></svg>