<svg xmlns="http://www.w3.org/2000/svg" viewBox="0 0 32 32" id="box">
  <g>
    <path d="M27,0H5A5.006,5.006,0,0,0,0,5V27a5.006,5.006,0,0,0,5,5H27a5.006,5.006,0,0,0,5-5V5A5.006,5.006,0,0,0,27,0ZM20,2v8.919l-3.375-2.7a1.028,1.028,0,0,0-1.25,0L12,10.919V2ZM30,27a3,3,0,0,1-3,3H5a3,3,0,0,1-3-3V5A3,3,0,0,1,5,2h5V13a1,1,0,0,0,1.625.781L16,10.281l4.375,3.5a1.018,1.018,0,0,0,1.059.12A1,1,0,0,0,22,13V2h5a3,3,0,0,1,3,3Z"></path>
    <path d="M12 21H6a1 1 0 0 0 0 2h6a1 1 0 0 0 0-2zM8 25H6a1 1 0 0 0 0 2H8a1 1 0 0 0 0-2z"></path>
    <circle cx="12" cy="26" r="1"></circle>
  </g>
</svg>
