<?xml version="1.0" standalone="no"?>
<!DOCTYPE svg PUBLIC "-//W3C//DTD SVG 20010904//EN"
 "http://www.w3.org/TR/2001/REC-SVG-20010904/DTD/svg10.dtd">
<svg version="1.0" xmlns="http://www.w3.org/2000/svg"
 width="512.000000pt" height="512.000000pt" viewBox="0 0 512.000000 512.000000"
 preserveAspectRatio="xMidYMid meet">

<g transform="translate(0.000000,512.000000) scale(0.100000,-0.100000)"
fill="#000000" stroke="none">
<path d="M2469 4059 c-220 -23 -434 -130 -586 -292 -284 -304 -338 -774 -129
-1124 l36 -58 -33 -25 c-17 -14 -73 -66 -124 -116 -75 -76 -98 -106 -131 -175
-65 -137 -67 -151 -67 -564 l0 -370 95 0 95 0 5 386 5 385 37 76 c29 57 56 92
115 149 43 41 90 80 105 88 25 13 29 11 80 -31 98 -82 212 -143 333 -178 39
-11 59 -22 58 -31 -1 -8 -42 -212 -92 -454 -49 -242 -91 -452 -93 -466 -3 -24
18 -44 187 -179 105 -84 196 -155 202 -157 7 -3 102 66 210 152 109 87 199
159 199 159 1 1 -43 212 -97 471 -54 259 -98 475 -99 481 0 7 21 17 48 23 103
26 250 105 346 187 l48 42 37 -21 c69 -40 185 -167 222 -242 l34 -70 5 -385 5
-385 93 -3 93 -3 -3 398 c-3 388 -4 400 -26 463 -47 131 -159 274 -277 356
-30 20 -55 39 -55 40 0 2 14 26 30 54 77 131 118 274 126 440 23 459 -305 879
-751 964 -109 20 -195 25 -286 15z m321 -219 c424 -145 638 -601 472 -1007
-91 -223 -275 -384 -513 -449 -77 -21 -280 -25 -349 -6 -268 74 -466 259 -547
510 -35 106 -43 278 -18 388 43 196 165 374 330 479 74 48 127 71 217 95 102
28 313 23 408 -10z m-184 -1765 c3 -14 41 -192 83 -395 l77 -369 -90 -72 c-49
-40 -95 -72 -101 -72 -18 0 -196 146 -192 158 3 5 40 182 82 393 l78 382 29 0
c21 0 29 -6 34 -25z"/>
</g>
</svg>
