<?xml version="1.0" standalone="no"?>
<!DOCTYPE svg PUBLIC "-//W3C//DTD SVG 20010904//EN"
 "http://www.w3.org/TR/2001/REC-SVG-20010904/DTD/svg10.dtd">
<svg version="1.0" xmlns="http://www.w3.org/2000/svg"
 width="512.000000pt" height="512.000000pt" viewBox="0 0 512.000000 512.000000"
 preserveAspectRatio="xMidYMid meet">

<g transform="translate(0.000000,512.000000) scale(0.100000,-0.100000)"
fill="#000000" stroke="none">
<path d="M1388 4159 c-33 -19 -38 -78 -38 -479 l-1 -395 -214 -159 c-124 -93
-216 -168 -219 -180 -3 -12 -6 -454 -6 -984 l0 -963 25 -24 24 -25 1601 0
1601 0 24 25 25 24 0 974 c0 914 -1 976 -17 995 -10 11 -109 88 -220 171
l-202 151 -3 421 -3 421 -24 19 c-23 18 -56 19 -1180 19 -750 -1 -1162 -4
-1173 -11z m2222 -813 l0 -674 -519 -336 c-286 -185 -525 -336 -530 -336 -6 0
-245 151 -531 336 l-520 336 0 674 0 674 1050 0 1050 0 0 -674z m-2264 -563
c-4 -4 -215 132 -219 142 -1 3 48 43 108 89 l110 83 3 -155 c1 -85 1 -157 -2
-159z m2647 137 c-14 -12 -214 -140 -218 -140 -3 0 -5 72 -5 160 l0 160 115
-86 c64 -48 112 -90 108 -94z m-2168 -631 c583 -378 706 -454 735 -454 29 0
153 77 755 466 396 256 726 469 733 473 9 6 12 -164 12 -833 l0 -841 -1500 0
-1500 0 0 841 0 841 33 -20 c17 -10 347 -223 732 -473z"/>
<path d="M1844 3660 c-26 -10 -54 -48 -54 -71 0 -9 9 -28 21 -43 l20 -26 729
0 729 0 20 26 c27 35 26 57 -3 91 l-24 28 -709 2 c-389 1 -718 -2 -729 -7z"/>
<path d="M1834 3248 c-22 -10 -44 -47 -44 -72 0 -7 9 -25 21 -40 l20 -26 729
0 729 0 20 26 c12 15 21 33 21 40 0 26 -23 62 -47 73 -32 15 -1418 14 -1449
-1z"/>
<path d="M1834 2838 c-22 -10 -44 -47 -44 -74 0 -8 11 -26 25 -39 l24 -25 721
0 721 0 24 25 c14 13 25 31 25 39 0 28 -22 64 -47 75 -32 15 -1418 14 -1449
-1z"/>
</g>
</svg>
