<svg xmlns="http://www.w3.org/2000/svg" width="48" height="48" viewBox="0 0 48 48" id="doc">
  <g display="none">
    <rect width="48" height="48" fill="#fff" color="#000" overflow="visible" style="isolation:auto;mix-blend-mode:normal"></rect>
    <rect width="48" height="48" x="-46.987" fill="#fff" color="#000" overflow="visible" style="isolation:auto;mix-blend-mode:normal"></rect>
    <rect width="48" height="48" x="-102.987" fill="#fff" color="#000" overflow="visible" style="isolation:auto;mix-blend-mode:normal"></rect>
    <rect width="48" height="48" y="57.592" fill="#fff" color="#000" overflow="visible" style="isolation:auto;mix-blend-mode:normal"></rect>
    <rect width="48" height="48" x="-46.987" y="57.592" fill="#fff" color="#000" overflow="visible" style="isolation:auto;mix-blend-mode:normal"></rect>
    <rect width="48" height="48" x="-102.987" y="57.592" fill="#fff" color="#000" overflow="visible" style="isolation:auto;mix-blend-mode:normal"></rect>
    <rect width="48" height="48" y="117.592" fill="#fff" color="#000" overflow="visible" style="isolation:auto;mix-blend-mode:normal"></rect>
    <rect width="48" height="48" x="-46.987" y="117.592" fill="#fff" color="#000" overflow="visible" style="isolation:auto;mix-blend-mode:normal"></rect>
    <rect width="48" height="48" x="-102.987" y="117.592" fill="#fff" color="#000" overflow="visible" style="isolation:auto;mix-blend-mode:normal"></rect>
    <rect width="48" height="48" y="173.592" fill="#fff" color="#000" overflow="visible" style="isolation:auto;mix-blend-mode:normal"></rect>
    <rect width="48" height="48" x="-46.987" y="173.592" fill="#fff" color="#000" overflow="visible" style="isolation:auto;mix-blend-mode:normal"></rect>
    <rect width="48" height="48" x="-102.987" y="173.592" fill="#fff" color="#000" overflow="visible" style="isolation:auto;mix-blend-mode:normal"></rect>
    <rect width="48" height="48" y="231.592" fill="#fff" color="#000" overflow="visible" style="isolation:auto;mix-blend-mode:normal"></rect>
    <rect width="48" height="48" x="-46.987" y="231.592" fill="#fff" color="#000" overflow="visible" style="isolation:auto;mix-blend-mode:normal"></rect>
    <rect width="48" height="48" x="-102.987" y="231.592" fill="#fff" color="#000" overflow="visible" style="isolation:auto;mix-blend-mode:normal"></rect>
  </g>
  <g transform="translate(-123 -1110.362)">
    <path fill="#242730" d="m 149,1112.3622 c -0.554,0 -1,0.446 -1,1 l 0,1 c 0,0.554 0.446,1 1,1 l 10.0039,0 0.016,6.4844 c 0,0.8253 0.6708,1.4938 1.4961,1.4961 l 6.4844,0.017 0,28.502 c 0,0.8569 -0.6431,1.5 -1.5,1.5 l -23,0 c -0.857,0 -1.5,-0.6431 -1.5,-1.5 l 0,-1.5 c 0,-0.554 -0.446,-1 -1,-1 l -1,0 c -0.554,0 -1,0.446 -1,1 l 0,1.5 c 0,2.4671 2.0329,4.5 4.5,4.5 l 23,0 c 2.467,0 4.5,-2.0329 4.5,-4.5 l 0,-30.4863 c -1e-4,-0.3978 -0.1582,-0.7793 -0.4395,-1.0606 l -7.5137,-7.5136 c -0.2812,-0.2814 -0.6627,-0.4394 -1.0605,-0.4395 z m -11,21 c 0,0.554 0.446,1 1,1 l 1,0 c 0.554,0 1,-0.446 1,-1 l 0,-10 c 0,-0.554 -0.446,-1 -1,-1 l -1,0 c -0.554,0 -1,0.446 -1,1 z" color="#000" font-family="sans-serif" font-weight="400" overflow="visible" style="line-height:normal;text-indent:0;text-align:start;text-decoration-line:none;text-decoration-style:solid;text-decoration-color:#000;text-transform:none;block-progression:tb;isolation:auto;mix-blend-mode:normal"></path>
    <path fill="#11c111" d="m 142.5,108 c -2.467,0 -4.5,2.0329 -4.5,4.5 l 0,2.5 c 0,0.554 0.446,1 1,1 l 1,0 c 0.554,0 1,-0.446 1,-1 l 0,-2.5 c 0,-0.8569 0.6431,-1.5 1.5,-1.5 l 2.5,0 c 0.554,0 1,-0.446 1,-1 l 0,-1 c 0,-0.554 -0.446,-1 -1,-1 l -2.5,0 z M 127,132 c -1.10801,0 -2,0.892 -2,2 l 0,7 c 0,1.108 0.89199,2 2,2 l 25,0 c 1.10801,0 2,-0.892 2,-2 l 0,-7 c 0,-1.108 -0.89199,-2 -2,-2 l -25,0 z m 12.5293,2.58789 c 1.52779,0 2.625,1.21241 2.625,2.91211 0,1.7092 -1.09721,2.91211 -2.625,2.91211 -1.5087,0 -2.63672,-1.20291 -2.63672,-2.91211 0,-1.7092 1.08983,-2.91211 2.63672,-2.91211 z m 5.86718,0 c 0.44821,0 0.87828,0.10469 1.33594,0.30469 0.11459,-0.21 0.22936,-0.29688 0.43946,-0.29688 0.29599,0 0.41992,0.12429 0.41992,0.52539 l 0.0117,1.21289 c 0,0.401 -0.0968,0.54493 -0.48829,0.54493 -0.28646,0 -0.39066,-0.14346 -0.47656,-0.43946 -0.15278,-0.5443 -0.43944,-0.83007 -1.12695,-0.83007 -0.94532,0 -1.48047,0.64932 -1.48047,1.89062 0,1.2318 0.53536,1.89062 1.49023,1.89062 0.87848,0 1.40408,-0.65039 1.82422,-0.65039 0.23872,0 0.42969,0.22956 0.42969,0.53516 0,0.4965 -1.06053,1.14649 -2.34961,1.14649 -1.64238,0 -2.73047,-1.20308 -2.73047,-2.92188 0,-1.6328 1.10654,-2.91211 2.70117,-2.91211 z m -13.57812,0.15234 0.87695,0 0.27735,0 c 0.88803,0 1.62434,0.02 2.19726,0.36329 0.73525,0.4488 1.16406,1.28888 1.16406,2.39648 0,1.1554 -0.48762,2.04312 -1.31836,2.48242 -0.48696,0.2674 -1.08831,0.28516 -1.79492,0.28516 l -0.52539,0 -0.87695,0 c -0.3915,0 -0.59375,-0.12413 -0.59375,-0.51563 0,-0.3342 0.18142,-0.50586 0.51562,-0.50586 l 0.0781,0 0,-3.47461 -0.0781,0 c -0.3342,0 -0.51562,-0.18142 -0.51562,-0.51562 0,-0.382 0.19271,-0.51563 0.59375,-0.51563 z m 7.71094,0.92579 c -0.783,0 -1.28907,0.64998 -1.28907,1.83398 0,1.1841 0.52517,1.8418 1.28907,1.8418 0.77345,0 1.28906,-0.6482 1.28906,-1.8418 0,-1.1936 -0.51561,-1.83398 -1.28906,-1.83398 z m -6.23242,0.0762 c -0.0859,0 -0.1799,-4.4e-4 -0.2754,0.01 l 0,3.48438 c 0.0955,0.01 0.17973,0.01 0.26563,0.01 1.16495,0 1.71094,-0.55276 1.71094,-1.75586 0,-1.1745 -0.55534,-1.74804 -1.70117,-1.74804 z" color="#000" font-family="sans-serif" font-weight="400" overflow="visible" style="line-height:normal;text-indent:0;text-align:start;text-decoration-line:none;text-decoration-style:solid;text-decoration-color:#000;text-transform:none;block-progression:tb;isolation:auto;mix-blend-mode:normal" transform="translate(0 1004.362)"></path>
  </g>
</svg>
