<?xml version="1.0" standalone="no"?>
<!DOCTYPE svg PUBLIC "-//W3C//DTD SVG 20010904//EN"
 "http://www.w3.org/TR/2001/REC-SVG-20010904/DTD/svg10.dtd">
<svg version="1.0" xmlns="http://www.w3.org/2000/svg"
 width="800.000000pt" height="800.000000pt" viewBox="0 0 800.000000 800.000000"
 preserveAspectRatio="xMidYMid meet">

<g transform="translate(0.000000,800.000000) scale(0.100000,-0.100000)"
fill="#000000" stroke="none">
<path d="M2385 5553 c-625 -83 -1138 -520 -1320 -1123 -46 -153 -60 -263 -59
-460 1 -207 17 -310 79 -497 191 -572 714 -995 1315 -1063 78 -8 510 -10 1670
-8 l1565 4 97 22 c424 97 768 330 1000 676 484 725 289 1707 -437 2192 -169
112 -332 182 -550 236 l-90 22 -1620 2 c-891 1 -1633 -1 -1650 -3z m3295 -277
c261 -62 480 -179 653 -349 234 -229 368 -514 396 -838 51 -601 -322 -1165
-896 -1357 -211 -71 -94 -67 -1833 -67 -1463 0 -1571 1 -1653 18 -270 55 -486
168 -678 354 -202 196 -321 414 -380 693 -28 134 -30 352 -5 483 107 557 543
984 1096 1072 69 11 374 13 1655 11 1469 -2 1575 -3 1645 -20z"/>
<path d="M5196 5025 c-228 -47 -413 -150 -574 -320 -385 -405 -386 -1038 0
-1450 318 -341 822 -430 1243 -221 279 139 471 375 558 684 18 66 21 103 21
267 0 178 -2 196 -27 280 -115 378 -391 647 -766 746 -101 27 -355 35 -455 14z
m761 -588 c58 -58 83 -91 83 -107 0 -36 -774 -810 -809 -810 -37 0 -481 444
-481 480 0 37 150 190 187 190 21 0 55 -29 159 -132 74 -72 136 -130 138 -127
3 2 137 136 299 297 219 219 299 292 317 292 16 0 49 -26 107 -83z"/>
</g>
</svg>
