<svg xmlns="http://www.w3.org/2000/svg" fill-rule="evenodd" stroke-linejoin="round" stroke-miterlimit="2" clip-rule="evenodd" viewBox="0 0 32 32" id="project-folder">
  <path d="M2 16v11a3 3 0 0 0 3 3h22a3 3 0 0 0 3-3V16a1 1 0 0 0-2 0v11a1 1 0 0 1-1 1H5a1 1 0 0 1-1-1V16a1 1 0 0 0-2 0zm28-4v-2a3 3 0 0 0-3-3H15.961a1 1 0 0 1-.781-.375l-2.799-3.499A2.998 2.998 0 0 0 10.039 2H5a3 3 0 0 0-3 3v7a1 1 0 0 0 2 0V5a1 1 0 0 1 1-1h5.039a1 1 0 0 1 .781.375l2.799 3.499A2.998 2.998 0 0 0 15.961 9H27a1 1 0 0 1 1 1v2a1 1 0 0 0 2 0z"></path>
  <path d="M7 13h6a1 1 0 0 0 0-2H7a1 1 0 0 0 0 2ZM7 21h6a1 1 0 0 0 0-2H7a1 1 0 0 0 0 2ZM7 17h18a1 1 0 0 0 0-2H7a1 1 0 0 0 0 2Z"></path>
</svg>
