<svg xmlns="http://www.w3.org/2000/svg" width="512pt" height="512pt" viewBox="0 0 512 512" id="flask"><path d="m512 286.984375c0-57.894531-47.101562-104.996094-104.992188-104.996094-34.640624 0-65.40625 16.863281-84.542968 42.808594l-50.453125-63.066406v-131.730469h30v-30h-210.988281v30h30v131.691406l-103.109376 127.671875c-42.503906 53.132813-4.617187 132.613281 63.738282 132.613281h228.730468c26.527344 0 51.390626-13.15625 66.546876-34.394531 9.535156 2.855469 19.625 4.398438 30.074218 4.398438 8.710938 0 17.175782-1.074219 25.273438-3.082031l51.90625 122.910156 27.632812-11.671875-51.765625-122.578125c31.054688-18.257813 51.949219-52.019532 51.949219-90.574219zm-360.980469-114.691406v-21.300781h59.996094v-30h-59.996094v-29.996094h59.996094v-30h-59.996094v-30.996094h90.996094v142.253906l58.730469 73.410156c-37.105469-15.210937-80.703125-10.445312-113.726563 14.324219-30.320312 22.738281-72.675781 22.742188-102.996093 0l-2.382813-1.789062zm159.363281 219.6875h-228.730468c-43.457032 0-67.046875-50.460938-40.355469-83.824219l21.484375-26.605469c2.039062 1.078125 28.15625 25.449219 72.742188 25.449219 24.515624 0 49.035156-7.671875 69.496093-23.015625 28.441407-21.332031 67.476563-22.652344 97.230469-3.960937-.152344 2.300781-.238281 4.621093-.238281 6.960937 0 36.492187 18.71875 68.691406 47.058593 87.515625-9.683593 10.898438-23.769531 17.480469-38.6875 17.480469zm21.628907-104.996094c0-41.351563 33.640625-74.996094 74.996093-74.996094 41.351563 0 74.992188 33.644531 74.992188 74.996094s-33.640625 74.996094-74.992188 74.996094c-41.355468 0-74.996093-33.644531-74.996093-74.996094zm0 0"></path></svg>