<svg xmlns="http://www.w3.org/2000/svg" viewBox="0 0 32 32" id="group-folder"><g><path d="M32,29.83H0V6.51H32ZM1.63,28.2H30.37V8.14H1.63Z"></path><path d="M17.32 8.14H0v-6H14.33zM1.63 6.51H14.68L13.33 3.8H1.63zM20.07 25.76H11.93v-1.9a4.07 4.07 0 0 1 8.14 0zm-6.51-1.63h4.88v-.27a2.44 2.44 0 1 0-4.88 0z"></path><path d="M16 21.42a3 3 0 1 1 3-3A3 3 0 0 1 16 21.42zm0-4.34a1.36 1.36 0 1 0 1.36 1.36A1.36 1.36 0 0 0 16 17.08zM12.2 20.88H7.59V19a4.07 4.07 0 0 1 4.07-4.07v1.63A2.44 2.44 0 0 0 9.22 19v.27h3z"></path><path d="M11.66 16.54a3 3 0 1 1 3-3A3 3 0 0 1 11.66 16.54zm0-4.34A1.36 1.36 0 1 0 13 13.56 1.36 1.36 0 0 0 11.66 12.2zM24.41 20.88H19.8V19.25h3V19a2.44 2.44 0 0 0-2.44-2.44V14.92A4.07 4.07 0 0 1 24.41 19z"></path><path d="M20.34,16.54a3,3,0,1,1,3-3A3,3,0,0,1,20.34,16.54Zm0-4.34a1.36,1.36,0,1,0,1.36,1.36A1.36,1.36,0,0,0,20.34,12.2Z"></path></g></svg>