<svg xmlns="http://www.w3.org/2000/svg" width="32" height="32" viewBox="0 0 8.467 8.467" id="home"><path d="m 4.2189035,0.79415377 a 0.26391311,0.26459421 0 0 0 -0.1443101,0.052707 L 0.91104361,3.2279704 A 0.26391311,0.26459421 0 1 0 1.2285335,3.6496251 L 4.2323036,1.387881 7.2381335,3.6496251 a 0.26391311,0.26459421 0 1 0 0.31749,-0.4216547 L 4.3920736,0.84686077 a 0.26391311,0.26459421 0 0 0 -0.1731701,-0.052707 z m 0,1.17763653 A 0.26391311,0.26459421 0 0 0 4.0745934,2.0244973 L 1.4388135,4.0149559 a 0.26391311,0.26459421 0 0 0 -0.10514,0.2108274 v 3.1815302 a 0.26391311,0.26459421 0 0 0 0.26337,0.2656009 H 3.4416736 A 0.26391311,0.26459421 0 0 0 3.7065934,7.4073135 l -0.006,-1.851457 h 1.05967 v 1.851457 a 0.26391311,0.26459421 0 0 0 0.26337,0.2656009 h 1.84669 A 0.26391311,0.26459421 0 0 0 7.1331826,7.4073135 V 4.2257833 A 0.26391311,0.26459421 0 0 0 7.0280435,4.0149559 l -2.63578,-1.9904587 a 0.26391311,0.26459421 0 0 0 -0.17317,-0.052707 z m 0.013401,0.5957942 2.3729199,1.7889326 V 7.1437795 H 5.2883636 V 5.2902553 A 0.26391311,0.26459421 0 0 0 5.0234435,5.0267207 h -1.58589 a 0.26391311,0.26459421 0 0 0 -0.26492,0.2656012 l 0.006,1.8514576 h -1.31667 V 4.3565171 Z" color="#000" font-family="sans-serif" font-weight="400" overflow="visible" style="line-height:normal;font-variant-ligatures:normal;font-variant-position:normal;font-variant-caps:normal;font-variant-numeric:normal;font-variant-alternates:normal;font-feature-settings:normal;text-indent:0;text-align:start;text-decoration-line:none;text-decoration-style:solid;text-decoration-color:#000;text-transform:none;text-orientation:mixed;shape-padding:0;isolation:auto;mix-blend-mode:normal"></path></svg>