<svg xmlns="http://www.w3.org/2000/svg" viewBox="0 0 24 24" id="id-card">
  <path d="M18 5H6C3.8 5 2 6.8 2 9v6c0 2.2 1.8 4 4 4h12c2.2 0 4-1.8 4-4V9c0-2.2-1.8-4-4-4zm2 10c0 1.1-.9 2-2 2H6c-1.1 0-2-.9-2-2V9c0-1.1.9-2 2-2h12c1.1 0 2 .9 2 2v6z"></path>
  <path d="M8 12c-1.7 0-3 1.3-3 3 0 .6.4 1 1 1s1-.4 1-1 .4-1 1-1 1 .4 1 1 .4 1 1 1 1-.4 1-1c0-1.7-1.3-3-3-3z"></path>
  <circle cx="8" cy="10" r="2"></circle>
  <path d="M14 11h1c.6 0 1-.4 1-1s-.4-1-1-1h-1c-.6 0-1 .4-1 1s.4 1 1 1zm3 2h-3c-.6 0-1 .4-1 1s.4 1 1 1h3c.6 0 1-.4 1-1s-.4-1-1-1z"></path>
</svg>
