<?xml version="1.0" standalone="no"?>
<!DOCTYPE svg PUBLIC "-//W3C//DTD SVG 20010904//EN"
 "http://www.w3.org/TR/2001/REC-SVG-20010904/DTD/svg10.dtd">
<svg version="1.0" xmlns="http://www.w3.org/2000/svg"
 width="300.000000pt" height="256.000000pt" viewBox="0 0 300.000000 256.000000"
 preserveAspectRatio="xMidYMid meet">

<g transform="translate(0.000000,256.000000) scale(0.100000,-0.100000)"
fill="#000000" stroke="none">
<path d="M1350 2520 c-441 -61 -800 -320 -990 -713 -53 -111 -88 -238 -107
-387 -70 -545 263 -1093 787 -1296 149 -57 238 -75 411 -81 179 -7 298 9 448
57 368 119 673 420 794 780 47 143 61 234 62 400 0 169 -11 243 -57 384 -59
184 -159 347 -298 487 -183 184 -377 290 -640 350 -99 22 -315 32 -410 19z
m259 -160 c137 -14 254 -49 386 -115 341 -169 555 -480 596 -865 21 -189 -12
-369 -101 -557 -54 -114 -85 -162 -159 -246 -331 -377 -875 -486 -1316 -265
-322 162 -536 451 -596 806 -5 31 -10 104 -10 162 -1 587 466 1064 1067 1089
18 0 77 -4 133 -9z"/>
<path d="M1000 1280 l0 -570 115 0 115 0 -2 568 -3 567 -112 2 -113 2 0 -569z"/>
<path d="M1520 1685 c-8 -2 -36 -7 -62 -10 l-47 -6 1 -475 c0 -430 2 -476 17
-482 9 -4 93 -7 186 -7 150 0 179 3 245 23 97 30 145 59 202 120 90 96 122
193 123 367 0 141 -16 205 -73 289 -48 72 -126 130 -210 157 -54 17 -97 22
-217 25 -82 1 -157 1 -165 -1z m318 -197 c55 -28 106 -91 124 -151 7 -23 12
-85 11 -137 -1 -126 -25 -192 -93 -253 -62 -55 -118 -73 -227 -69 l-43 2 0
314 c0 242 3 316 13 320 6 3 47 4 90 2 58 -3 91 -11 125 -28z"/>
</g>
</svg>
