<?xml version="1.0" standalone="no"?>
<!DOCTYPE svg PUBLIC "-//W3C//DTD SVG 20010904//EN"
 "http://www.w3.org/TR/2001/REC-SVG-20010904/DTD/svg10.dtd">
<svg version="1.0" xmlns="http://www.w3.org/2000/svg"
 width="512.000000pt" height="512.000000pt" viewBox="0 0 512.000000 512.000000"
 preserveAspectRatio="xMidYMid meet">

<g transform="translate(0.000000,512.000000) scale(0.100000,-0.100000)"
fill="#000000" stroke="none">
<path d="M2500 4527 l0 -462 -618 -348 -618 -347 -142 0 -142 0 0 -280 0 -280
-490 0 -490 0 0 -220 0 -220 90 0 90 0 0 -940 0 -940 -90 0 -90 0 0 -180 0
-180 2560 0 2560 0 0 180 0 180 -90 0 -90 0 0 940 0 940 90 0 90 0 0 220 0
220 -490 0 -490 0 0 280 0 280 -142 0 -141 0 -619 348 -618 347 0 193 0 192
100 0 100 0 0 -120 0 -120 300 0 300 0 0 220 0 220 -160 0 -160 0 0 120 0 120
-240 0 -240 0 0 50 0 50 -60 0 -60 0 0 -463z m480 143 l0 -100 -180 0 -180 0
0 100 0 100 180 0 180 0 0 -100z m320 -240 l0 -100 -180 0 -180 0 0 60 0 60
80 0 80 0 0 40 0 40 100 0 100 0 0 -100z m-218 -762 l520 -293 -521 -3 c-286
-1 -755 -1 -1042 0 l-520 3 518 292 c285 161 520 292 522 293 2 0 237 -132
523 -292z m938 -678 l0 -260 -1460 0 -1460 0 0 260 0 260 1460 0 1460 0 0
-260z m-3040 -340 l0 -40 80 0 80 0 0 -60 0 -60 -510 0 -510 0 0 100 0 100
430 0 430 0 0 -40z m4020 -60 l0 -100 -510 0 -510 0 0 60 0 60 80 0 80 0 0 40
0 40 430 0 430 0 0 -100z m-1140 -80 l0 -100 -1300 0 -1300 0 0 100 0 100
1300 0 1300 0 0 -100z m-2720 -180 l0 -40 80 0 80 0 0 -780 0 -780 -400 0
-400 0 0 -120 0 -120 -100 0 -100 0 0 940 0 940 420 0 420 0 0 -40z m3680
-900 l0 -940 -100 0 -100 0 0 120 0 120 -400 0 -400 0 0 780 0 780 80 0 80 0
0 40 0 40 420 0 420 0 0 -940z m-3280 80 l0 -780 -60 0 -60 0 0 780 0 780 60
0 60 0 0 -780z m240 0 l0 -780 -60 0 -60 0 0 780 0 780 60 0 60 0 0 -780z
m1440 0 l0 -780 -140 0 -140 0 0 400 0 400 -380 0 -380 0 0 -400 0 -400 -140
0 -140 0 0 780 0 780 660 0 660 0 0 -780z m240 0 l0 -780 -60 0 -60 0 0 780 0
780 60 0 60 0 0 -780z m240 0 l0 -780 -60 0 -60 0 0 780 0 780 60 0 60 0 0
-780z m-1200 -440 l0 -340 -100 0 -100 0 0 340 0 340 100 0 100 0 0 -340z
m320 0 l0 -340 -100 0 -100 0 0 340 0 340 100 0 100 0 0 -340z m1680 -520 l0
-60 -1940 0 -1940 0 0 60 0 60 1940 0 1940 0 0 -60z m500 -240 l0 -60 -2440 0
-2440 0 0 60 0 60 2440 0 2440 0 0 -60z"/>
<path d="M420 1510 l0 -660 380 0 380 0 0 660 0 660 -380 0 -380 0 0 -660z
m320 400 l0 -140 -100 0 -100 0 0 140 0 140 100 0 100 0 0 -140z m320 0 l0
-140 -100 0 -100 0 0 140 0 140 100 0 100 0 0 -140z m-320 -400 l0 -140 -100
0 -100 0 0 140 0 140 100 0 100 0 0 -140z m320 0 l0 -140 -100 0 -100 0 0 140
0 140 100 0 100 0 0 -140z m-320 -400 l0 -140 -100 0 -100 0 0 140 0 140 100
0 100 0 0 -140z m320 0 l0 -140 -100 0 -100 0 0 140 0 140 100 0 100 0 0 -140z"/>
<path d="M3940 1510 l0 -660 380 0 380 0 0 660 0 660 -380 0 -380 0 0 -660z
m320 400 l0 -140 -100 0 -100 0 0 140 0 140 100 0 100 0 0 -140z m320 0 l0
-140 -100 0 -100 0 0 140 0 140 100 0 100 0 0 -140z m-320 -400 l0 -140 -100
0 -100 0 0 140 0 140 100 0 100 0 0 -140z m320 0 l0 -140 -100 0 -100 0 0 140
0 140 100 0 100 0 0 -140z m-320 -400 l0 -140 -100 0 -100 0 0 140 0 140 100
0 100 0 0 -140z m320 0 l0 -140 -100 0 -100 0 0 140 0 140 100 0 100 0 0 -140z"/>
<path d="M2020 1870 l0 -220 540 0 540 0 0 220 0 220 -540 0 -540 0 0 -220z
m320 0 l0 -100 -100 0 -100 0 0 100 0 100 100 0 100 0 0 -100z m320 0 l0 -100
-100 0 -100 0 0 100 0 100 100 0 100 0 0 -100z m320 0 l0 -100 -100 0 -100 0
0 100 0 100 100 0 100 0 0 -100z"/>
</g>
</svg>
