<svg xmlns="http://www.w3.org/2000/svg" viewBox="0 0 24 24" id="wire"><path d="M21.27,14.07l-1.89-1.89a1.64,1.64,0,0,0-2.32,0l-.83.82a.13.13,0,0,1-.15,0,11.26,11.26,0,0,1-3-2.12,11.1,11.1,0,0,1-2.12-3,.13.13,0,0,1,0-.15l.82-.83a1.64,1.64,0,0,0,0-2.32L9.93,2.73a1.68,1.68,0,0,0-2.32,0l-1,1a4.29,4.29,0,0,0-1,4.45,17.31,17.31,0,0,0,4,6.27,16.94,16.94,0,0,0,6.27,4,4.27,4.27,0,0,0,.48.13v1a.67.67,0,0,1-.66.66h-1a.67.67,0,0,1-.47-.19l-.59-.59a2.21,2.21,0,0,0-3.06,0,.68.68,0,0,1-.94,0,2.21,2.21,0,0,0-3.06,0,.68.68,0,0,1-.94,0l-1-1a.75.75,0,0,0-1.06,1.06l1,1a2.21,2.21,0,0,0,3.06,0,.68.68,0,0,1,.94,0,2.21,2.21,0,0,0,3.06,0,.68.68,0,0,1,.94,0l.59.59a2.18,2.18,0,0,0,1.53.63h1a2.16,2.16,0,0,0,2.16-2.16v-.94a4.3,4.3,0,0,0,2.47-1.22l1.05-1A1.64,1.64,0,0,0,21.27,14.07Zm-1.06,1.26-1.05,1a2.76,2.76,0,0,1-2.88.68,15.43,15.43,0,0,1-5.72-3.61A15.74,15.74,0,0,1,7,7.72a2.76,2.76,0,0,1,.68-2.88l1-1a.19.19,0,0,1,.1,0,.15.15,0,0,1,.1,0l1.89,1.89a.13.13,0,0,1,0,.2l-.82.83a1.6,1.6,0,0,0-.33,1.85A12.6,12.6,0,0,0,12,12a12.39,12.39,0,0,0,3.42,2.41,1.62,1.62,0,0,0,1.85-.33l.83-.82a.13.13,0,0,1,.2,0l1.89,1.89A.15.15,0,0,1,20.21,15.33Z"></path></svg>