<?xml version="1.0" standalone="no"?>
<!DOCTYPE svg PUBLIC "-//W3C//DTD SVG 20010904//EN"
 "http://www.w3.org/TR/2001/REC-SVG-20010904/DTD/svg10.dtd">
<svg version="1.0" xmlns="http://www.w3.org/2000/svg"
 width="512.000000pt" height="512.000000pt" viewBox="0 0 512.000000 512.000000"
 preserveAspectRatio="xMidYMid meet">

<g transform="translate(0.000000,512.000000) scale(0.100000,-0.100000)"
fill="#000000" stroke="none">
<path d="M3190 5105 c-287 -40 -550 -173 -761 -384 -631 -631 -491 -1670 286
-2125 399 -233 932 -233 1330 0 260 153 476 395 580 651 209 517 96 1083 -294
1474 -304 304 -718 443 -1141 384z m470 -228 c195 -52 366 -146 508 -282 141
-133 239 -288 296 -468 45 -140 56 -212 56 -358 0 -319 -108 -578 -334 -805
-228 -227 -486 -334 -805 -334 -146 0 -218 11 -358 56 -242 77 -450 236 -596
456 -70 104 -119 216 -155 346 -24 89 -26 113 -26 282 0 168 3 194 27 283 30
112 96 258 162 356 163 246 443 429 742 486 123 23 361 14 483 -18z"/>
<path d="M3407 4460 c-89 -16 -181 -49 -252 -90 -130 -76 -252 -220 -300 -353
l-23 -62 -76 -5 c-65 -4 -79 -9 -102 -32 -40 -39 -38 -102 5 -140 27 -24 40
-28 90 -28 l58 0 7 -46 c10 -77 13 -74 -63 -74 -60 0 -71 -3 -94 -26 -35 -34
-42 -75 -22 -117 22 -47 51 -57 163 -57 l97 0 29 -46 c44 -69 148 -168 224
-213 173 -102 370 -125 569 -66 99 29 134 107 78 173 -33 39 -63 43 -154 21
-170 -42 -333 -8 -444 92 l-42 38 232 1 231 0 30 25 c36 30 47 66 32 110 -21
64 -27 65 -350 65 l-290 0 -9 23 c-5 13 -11 39 -13 58 l-3 34 332 3 331 2 31
29 c43 40 44 100 2 142 l-29 29 -311 0 c-352 0 -335 -5 -281 80 69 107 200
198 319 220 81 15 147 12 237 -11 77 -20 84 -20 117 -4 62 29 76 103 30 155
-21 24 -46 36 -103 51 -88 23 -215 31 -283 19z"/>
<path d="M2140 2393 c-252 -24 -415 -77 -793 -261 -170 -82 -222 -103 -225
-92 -11 33 -106 119 -155 141 -49 23 -64 24 -307 27 -259 4 -331 -3 -394 -35
-54 -28 -113 -92 -142 -156 l-29 -62 0 -850 0 -850 29 -62 c33 -72 94 -134
164 -166 45 -21 61 -22 332 -22 324 0 347 4 428 78 78 73 112 159 112 286 l0
57 208 37 c374 68 353 67 1107 31 737 -35 868 -29 1128 57 216 72 359 157 612
365 490 403 708 589 735 625 90 125 94 309 9 435 -38 55 -98 108 -160 140
-102 51 -259 42 -360 -22 -21 -13 -193 -149 -381 -302 -189 -152 -361 -291
-383 -308 -101 -79 -268 -146 -395 -158 -36 -4 -186 -11 -334 -16 -308 -12
-295 -14 -345 73 -37 65 -40 101 -8 121 12 8 135 36 272 61 307 57 356 69 409
102 131 81 192 196 184 348 -10 185 -131 317 -315 345 -37 5 -243 17 -458 25
-372 14 -467 16 -545 8z m634 -218 c315 -14 363 -18 396 -35 129 -66 108 -264
-32 -309 -18 -5 -157 -33 -308 -61 -151 -28 -293 -59 -315 -69 -49 -22 -99
-70 -128 -125 -16 -31 -22 -58 -22 -116 0 -70 3 -80 42 -150 57 -103 104 -154
169 -186 l55 -27 277 7 c416 10 532 27 704 104 105 48 181 103 538 393 396
322 402 326 452 339 102 28 218 -65 218 -174 0 -77 -16 -93 -436 -442 -221
-183 -437 -358 -480 -390 -143 -102 -343 -190 -525 -230 -131 -28 -332 -28
-970 1 -685 32 -714 31 -1044 -31 -99 -19 -186 -34 -192 -34 -10 0 -13 124
-13 588 l0 587 228 109 c292 141 384 181 490 212 201 58 321 63 896 39z
m-1872 -195 c14 -10 30 -32 37 -47 8 -21 11 -246 9 -846 l-3 -819 -33 -29 -32
-29 -251 0 c-278 0 -288 2 -315 67 -19 43 -21 1601 -3 1652 7 18 26 41 43 52
28 17 53 19 277 19 230 0 248 -1 271 -20z"/>
</g>
</svg>
