<svg xmlns="http://www.w3.org/2000/svg" width="24" height="24" fill="none" id="report">
  <path fill="#000" d="M6 7a1 1 0 0 1 1-1h10a1 1 0 1 1 0 2H7a1 1 0 0 1-1-1zm1 3a1 1 0 1 0 0 2h10a1 1 0 1 0 0-2H7zm-1 5a1 1 0 0 1 1-1h10a1 1 0 1 1 0 2H7a1 1 0 0 1-1-1zm1 3a1 1 0 1 0 0 2h10a1 1 0 1 0 0-2H7z"></path>
  <path fill="#000" fill-rule="evenodd" d="M17 1a1 1 0 0 0-1-1H8a1 1 0 0 0-1 1H5a3 3 0 0 0-3 3v17a3 3 0 0 0 3 3h14a3 3 0 0 0 3-3V4a3 3 0 0 0-3-3h-2ZM8 4a1 1 0 0 1-1-1H5a1 1 0 0 0-1 1v17a1 1 0 0 0 1 1h14a1 1 0 0 0 1-1V4a1 1 0 0 0-1-1h-2a1 1 0 0 1-1 1H8Z" clip-rule="evenodd"></path>
</svg>
