<?xml version="1.0" standalone="no"?>
<!DOCTYPE svg PUBLIC "-//W3C//DTD SVG 20010904//EN"
 "http://www.w3.org/TR/2001/REC-SVG-20010904/DTD/svg10.dtd">
<svg version="1.0" xmlns="http://www.w3.org/2000/svg"
 width="1029.000000pt" height="980.000000pt" viewBox="0 0 1029.000000 980.000000"
 preserveAspectRatio="xMidYMid meet">

<g transform="translate(0.000000,980.000000) scale(0.100000,-0.100000)"
fill="#000000" stroke="none">
<path d="M3724 9786 c-65 -28 -91 -103 -59 -166 22 -42 53 -60 105 -60 52 0
83 18 105 60 33 63 9 132 -55 165 -35 18 -56 18 -96 1z m84 -62 c22 -15 30
-57 14 -80 -15 -23 -50 -34 -75 -25 -60 23 -42 121 23 121 9 0 26 -7 38 -16z"/>
<path d="M6953 9549 c-106 -30 -114 -183 -10 -224 102 -41 199 60 152 158 -27
57 -82 83 -142 66z m72 -74 c14 -13 25 -31 25 -40 0 -9 -11 -27 -25 -40 -13
-14 -31 -25 -40 -25 -9 0 -27 11 -40 25 -14 13 -25 31 -25 40 0 9 11 27 25 40
13 14 31 25 40 25 9 0 27 -11 40 -25z"/>
<path d="M309 9167 c-57 -38 -74 -98 -45 -156 21 -40 59 -61 108 -61 50 0 82
19 103 60 32 62 9 136 -51 165 -44 21 -75 19 -115 -8z m99 -53 c36 -25 27 -89
-15 -105 -62 -23 -110 54 -63 101 24 24 48 25 78 4z"/>
<path d="M5458 8372 c-20 -10 -62 -41 -94 -69 -33 -27 -197 -163 -366 -302
-170 -139 -315 -262 -323 -274 -13 -18 -15 -77 -15 -374 l0 -353 -29 0 c-16 0
-152 13 -303 30 -363 39 -910 98 -1078 116 -164 17 -215 18 -243 2 -12 -6
-110 -83 -217 -172 -107 -88 -220 -181 -251 -206 -30 -25 -112 -91 -181 -147
-70 -58 -131 -115 -137 -130 -8 -20 -11 -224 -9 -731 l3 -703 118 91 117 91 0
572 1 572 242 198 242 198 5 -581 5 -581 55 41 c62 47 112 74 152 84 l28 6 2
578 3 577 35 -2 c47 -4 1344 -141 1398 -148 l42 -6 0 -727 0 -727 109 -37 c60
-21 114 -38 120 -38 8 0 11 343 11 1194 l0 1193 96 79 c53 43 160 132 238 196
77 65 144 118 149 118 4 0 7 -665 7 -1478 l0 -1479 120 -41 120 -41 0 1584 0
1585 24 0 c14 0 125 -11 248 -25 123 -13 374 -40 558 -60 766 -82 905 -97
1120 -120 225 -25 499 -54 940 -100 129 -14 250 -27 268 -30 l32 -6 0 -1963 0
-1963 108 -38 c59 -21 113 -40 120 -42 9 -4 12 414 12 2071 0 2279 4 2118 -59
2150 -28 15 -106 24 -966 116 -258 27 -510 55 -560 60 -49 6 -216 24 -370 40
-407 43 -696 74 -1169 125 -231 25 -424 45 -431 45 -6 0 -27 -8 -47 -18z"/>
<path d="M2453 8198 c-46 -15 -100 -75 -114 -128 -43 -167 159 -295 291 -184
105 89 82 248 -45 305 -44 20 -83 22 -132 7z m106 -92 c29 -15 51 -53 51 -87
0 -25 -61 -89 -85 -89 -51 0 -106 51 -105 98 1 42 50 91 93 92 10 0 30 -6 46
-14z"/>
<path d="M6655 7557 c-29 -29 -35 -42 -35 -76 0 -56 22 -95 64 -115 26 -12 65
-16 176 -16 111 0 150 4 176 16 69 33 87 128 35 186 l-29 33 -177 3 -176 3
-34 -34z"/>
<path d="M8124 7556 c-28 -28 -34 -41 -34 -77 0 -57 17 -88 60 -110 48 -26
303 -28 356 -3 42 20 64 59 64 115 0 35 -6 47 -36 75 l-35 34 -171 0 -170 0
-34 -34z"/>
<path d="M9815 7156 c-117 -51 -74 -230 54 -228 52 1 86 24 105 73 26 63 -1
130 -61 155 -40 17 -59 17 -98 0z m90 -71 c14 -13 25 -31 25 -40 0 -9 -11 -27
-25 -40 -13 -14 -31 -25 -40 -25 -9 0 -27 11 -40 25 -14 13 -25 31 -25 40 0 9
11 27 25 40 13 14 31 25 40 25 9 0 27 -11 40 -25z"/>
<path d="M5939 7085 c-57 -31 -75 -130 -32 -177 38 -42 65 -48 221 -48 139 0
151 2 183 23 60 40 76 106 40 161 -34 51 -52 55 -226 55 -119 0 -167 -3 -186
-14z"/>
<path d="M7409 7085 c-57 -31 -75 -130 -32 -177 38 -42 66 -48 218 -48 152 0
180 6 218 48 43 48 24 147 -34 177 -39 21 -332 21 -370 0z"/>
<path d="M6655 6577 c-29 -29 -35 -42 -35 -76 0 -56 22 -95 64 -115 26 -12 65
-16 176 -16 111 0 150 4 176 16 69 33 87 128 35 186 l-29 33 -177 3 -176 3
-34 -34z"/>
<path d="M8124 6576 c-28 -28 -34 -42 -34 -75 0 -56 22 -95 64 -115 26 -12 65
-16 174 -16 152 0 180 6 217 46 20 21 25 38 25 76 0 43 -4 54 -34 84 l-34 34
-172 0 -172 0 -34 -34z"/>
<path d="M5939 6105 c-28 -15 -59 -70 -59 -105 0 -34 28 -79 63 -100 28 -17
51 -20 180 -20 166 0 194 8 227 63 24 39 25 68 4 113 -27 57 -53 64 -231 64
-117 -1 -165 -4 -184 -15z"/>
<path d="M7404 6101 c-58 -35 -70 -134 -21 -178 42 -39 63 -43 207 -43 160 0
198 10 230 62 35 56 11 140 -48 167 -13 6 -90 11 -180 11 -137 0 -161 -3 -188
-19z"/>
<path d="M6654 5596 c-28 -28 -34 -42 -34 -75 0 -56 22 -95 64 -115 46 -22
300 -23 351 -2 41 17 65 60 65 117 0 35 -6 47 -36 75 l-35 34 -171 0 -170 0
-34 -34z"/>
<path d="M8124 5596 c-28 -28 -34 -42 -34 -75 0 -56 22 -95 64 -115 46 -22
300 -23 351 -2 41 17 65 60 65 117 0 33 -6 47 -34 75 l-34 34 -172 0 -172 0
-34 -34z"/>
<path d="M3191 5489 c-31 -19 -261 -193 -1111 -844 -151 -115 -311 -237 -354
-270 -44 -33 -102 -78 -131 -100 -28 -22 -112 -86 -187 -143 -75 -56 -144
-112 -154 -123 -18 -20 -19 -72 -24 -1463 l-5 -1441 -110 -5 c-123 -6 -153
-17 -181 -72 -29 -57 -5 -121 58 -154 23 -12 640 -14 4156 -14 l4129 0 34 23
c44 30 61 63 55 110 -9 78 -50 101 -191 107 l-110 5 -3 1183 c-2 1076 -4 1185
-18 1208 -9 14 -26 30 -36 35 -18 9 -597 213 -738 259 -30 10 -174 60 -320
110 -146 50 -335 116 -420 145 -85 29 -357 123 -605 208 -247 85 -661 228
-920 317 -258 89 -527 181 -597 206 -71 24 -188 64 -260 90 -73 25 -216 74
-318 109 -168 58 -557 192 -1289 444 -146 50 -276 91 -290 91 -14 0 -41 -9
-60 -21z m346 -325 c136 -47 383 -132 548 -189 165 -57 505 -174 755 -260 250
-86 592 -204 760 -262 168 -57 361 -124 430 -148 69 -24 198 -69 288 -99 89
-31 235 -81 325 -112 89 -30 218 -75 287 -99 69 -24 199 -69 290 -100 91 -31
289 -99 440 -152 369 -127 522 -180 868 -298 l292 -100 0 -297 c0 -232 -3
-298 -12 -298 -7 0 -33 8 -58 16 -71 26 -876 303 -1460 504 -173 59 -643 221
-1045 360 -401 139 -806 278 -900 310 -93 32 -289 99 -435 150 -146 50 -341
118 -435 150 -415 142 -1085 373 -1133 391 -78 28 -134 25 -174 -9 -29 -25
-141 -111 -403 -311 -301 -229 -478 -365 -600 -458 -508 -389 -685 -523 -690
-523 -3 0 -5 123 -5 273 l1 272 281 215 c155 118 339 258 408 311 69 52 271
207 450 343 332 254 351 268 544 418 61 47 116 87 123 87 7 1 124 -38 260 -85z
m-106 -820 c55 -20 467 -162 879 -304 173 -60 439 -151 590 -203 333 -115
1424 -491 1825 -629 160 -55 346 -119 415 -143 368 -127 1046 -361 1343 -462
l337 -116 0 -210 c0 -163 -3 -208 -12 -204 -21 7 -338 117 -671 231 -169 58
-319 106 -333 106 -38 0 -82 -27 -99 -60 -30 -59 -10 -137 43 -164 15 -7 113
-43 217 -79 105 -36 339 -117 520 -179 l330 -114 3 -177 c1 -97 0 -177 -2
-177 -2 0 -202 68 -443 151 -570 197 -552 191 -590 184 -19 -3 -44 -20 -62
-41 -42 -47 -43 -106 -3 -152 23 -28 60 -43 272 -116 465 -160 795 -274 813
-281 13 -5 17 -19 17 -56 l0 -49 -2725 0 -2725 0 0 1630 c0 924 4 1630 9 1630
5 0 28 -7 52 -16z m-303 -1656 l-3 -1583 -828 -2 -827 -2 0 957 0 958 490 374
c527 402 635 485 945 724 110 85 206 155 213 155 10 1 12 -318 10 -1581z"/>
<path d="M5939 5125 c-28 -15 -59 -70 -59 -105 0 -34 28 -79 63 -100 28 -17
51 -20 180 -20 166 0 194 8 227 63 24 39 25 68 4 113 -27 57 -53 64 -231 64
-117 -1 -165 -4 -184 -15z"/>
<path d="M7409 5125 c-28 -15 -59 -70 -59 -105 0 -34 28 -79 63 -100 28 -17
51 -20 175 -20 150 0 190 8 225 47 43 49 24 148 -34 178 -39 21 -332 21 -370
0z"/>
<path d="M6669 4631 c-19 -16 -21 -21 -9 -25 8 -3 106 -37 218 -75 227 -78
222 -78 222 9 0 34 -6 48 -34 76 l-34 34 -170 0 c-153 0 -172 -2 -193 -19z"/>
<path d="M8129 4622 c-62 -55 -47 -167 26 -198 51 -21 305 -20 351 2 42 20 64
59 64 115 0 33 -6 47 -34 75 l-34 34 -171 0 -171 0 -31 -28z"/>
<path d="M52 1075 c-65 -55 -67 -133 -4 -185 82 -67 192 -13 192 95 0 95 -116
151 -188 90z"/>
<path d="M432 1083 c-60 -29 -80 -110 -43 -167 33 -49 54 -55 198 -56 l132 0
35 34 c35 32 41 50 36 106 -3 37 -17 59 -53 80 -27 17 -51 20 -152 20 -90 0
-128 -4 -153 -17z"/>
<path d="M9558 1084 c-51 -27 -76 -112 -48 -163 26 -49 66 -61 198 -61 137 0
171 10 197 60 30 59 14 125 -41 161 -25 16 -47 19 -154 19 -91 -1 -132 -5
-152 -16z"/>
<path d="M10109 1086 c-79 -45 -78 -170 1 -211 50 -26 95 -19 138 19 33 31 37
39 37 85 0 43 -4 55 -31 82 -38 37 -103 48 -145 25z"/>
</g>
</svg>
