<svg xmlns="http://www.w3.org/2000/svg" viewBox="0 0 32 32" id="surgical-instruments"><path d="M23,2a1,1,0,0,0-1,1V27a3,3,0,0,0,6,0V16a1,1,0,0,0,1-1V8A6.006,6.006,0,0,0,23,2Zm3,25a1,1,0,0,1-2,0V20h2Zm0-9H24V16h2Zm1-4H24V4.126A4.008,4.008,0,0,1,27,8ZM16,22a3.971,3.971,0,0,0-.581.059L13.98,14.806a1,1,0,0,0-.252-.492l-.851-.9.658-.7a1,1,0,0,0,.24-.429L16.2,3.259a1,1,0,1,0-1.931-.518l-2.356,8.785-.409.433-.409-.433L8.735,2.741A1,1,0,1,0,6.8,3.259l2.421,9.03a1,1,0,0,0,.24.429l.658.7-.851.9a1,1,0,0,0-.252.492L7.581,22.059A3.971,3.971,0,0,0,7,22a4.047,4.047,0,1,0,2.458.868l1.467-7.391.575-.608.575.608,1.467,7.391A3.978,3.978,0,1,0,16,22ZM7,28a2,2,0,1,1,2-2A2,2,0,0,1,7,28Zm9,0a2,2,0,1,1,2-2A2,2,0,0,1,16,28Z"></path></svg>