<svg xmlns="http://www.w3.org/2000/svg" enable-background="new 0 0 24 24" viewBox="0 0 24 24" id="task-list"><path d="M16.71 9.29c-.39-.39-1.02-.39-1.41 0L14 10.59l-.29-.29c-.39-.39-1.02-.39-1.41 0s-.39 1.02 0 1.41l1 1C13.49 12.9 13.74 13 14 13s.51-.1.71-.29l2-2C17.1 10.32 17.1 9.68 16.71 9.29zM16 3v4c0 .55-.45 1-1 1H9C8.45 8 8 7.55 8 7V3c0-.55.45-1 1-1h6C15.55 2 16 2.45 16 3zM8 12c0 .55.45 1 1 1s1-.45 1-1v-2c0-.55-.45-1-1-1s-1 .45-1 1V12zM8 17c0 .55.45 1 1 1s1-.45 1-1v-2c0-.55-.45-1-1-1s-1 .45-1 1V17zM15.71 14.29c-.39-.39-1.02-.39-1.41 0L14 14.59l-.29-.29c-.39-.39-1.02-.39-1.41 0s-.39 1.02 0 1.41L12.59 16l-.29.29c-.39.39-.39 1.02 0 1.41C12.49 17.9 12.74 18 13 18s.51-.1.71-.29L14 17.41l.29.29C14.49 17.9 14.74 18 15 18s.51-.1.71-.29c.39-.39.39-1.02 0-1.41L15.41 16l.29-.29C16.1 15.32 16.1 14.68 15.71 14.29z"></path><path d="M20,5v16c0,0.55-0.45,1-1,1H5c-0.55,0-1-0.45-1-1V5c0-0.55,0.45-1,1-1h2v2H6v14h12V6h-1V4h2C19.55,4,20,4.45,20,5z"></path></svg>