<svg xmlns="http://www.w3.org/2000/svg" width="512pt" height="512pt" viewBox="0 -57 512 512" id="tickets">
  <path d="m501.496094 90.421875 10.503906-3.300781v-87.121094h-409.664062v87.121094l10.503906 3.300781c16.046875 5.042969 26.828125 19.742187 26.828125 36.578125 0 6.0625-1.40625 11.84375-3.941407 17h-135.726562v87.125l10.503906 3.296875c16.046875 5.042969 26.828125 19.742187 26.828125 36.578125 0 16.839844-10.78125 31.539062-26.828125 36.578125l-10.503906 3.300781v87.121094h409.667969v-87.121094l-10.507813-3.300781c-16.046875-5.042969-26.824218-19.742187-26.824218-36.578125 0-6.0625 1.402343-11.84375 3.9375-17h135.726562v-87.125l-10.503906-3.300781c-16.046875-5.039063-26.828125-19.738281-26.828125-36.578125 0-16.832032 10.78125-31.53125 26.828125-36.574219zm-56.828125 36.578125c0 26.167969 14.617187 49.441406 37.332031 60.929688v36.070312h-72.332031v-194h72.332031v36.070312c-22.714844 11.488282-37.332031 34.761719-37.332031 60.929688zm-65 204.929688v36.070312h-76.667969v-194h76.667969v36.070312c-22.714844 11.488282-37.332031 34.761719-37.332031 60.929688s14.617187 49.441406 37.332031 60.929688zm-349.667969 0c22.714844-11.488282 37.332031-34.761719 37.332031-60.929688s-14.617187-49.441406-37.332031-60.929688v-36.070312h243v194h-243zm102.335938-265.859376v-36.070312h247.332031v114h-212.121094c1.386719-5.457031 2.121094-11.15625 2.121094-17 0-26.167969-14.617188-49.441406-37.332031-60.929688zm0 0"></path>
  <path d="M209 80h88v30h-88zm0 0M106.667969 224h88v30h-88zm0 0M106.667969 288h117.332031v30h-117.332031zm0 0"></path>
</svg>