<svg xmlns="http://www.w3.org/2000/svg" viewBox="0 0 48 48" id="user"><path d="M11.1 41.2c.5.38 1.02.72 1.55 1.05.05.03.09.07.15.1.02.01.05.02.07.03 2.73 1.66 5.8 2.7 8.98 3.01a21.225 21.225 0 0 0 4.31 0 21.263 21.263 0 0 0 9.03-3.05c.01 0 .01-.01.02-.01.01-.01.02-.02.04-.03.57-.35 1.12-.71 1.66-1.11l.01-.01c5.46-4.1 8.59-10.37 8.59-17.19 0-11.85-9.64-21.5-21.5-21.5S2.5 12.15 2.5 24c0 6.83 3.13 13.1 8.6 17.2zm14.74 1.21c-1.17.12-2.51.13-3.69 0-.84-.08-1.66-.22-2.48-.42-1.39-.33-2.73-.84-4-1.48 1.96-2.57 5.03-4.12 8.33-4.12 2.81 0 5.45 1.09 7.43 3.07.33.33.63.68.91 1.05a18.608 18.608 0 0 1-6.5 1.9zM24 5.5c10.2 0 18.5 8.3 18.5 18.5 0 5.87-2.7 11.27-7.4 14.8-.06.05-.13.09-.19.14A13.41 13.41 0 0 0 24 33.39c-4.34 0-8.38 2.09-10.9 5.55-.06-.05-.13-.09-.2-.14h-.01C8.2 35.26 5.5 29.87 5.5 24 5.5 13.8 13.8 5.5 24 5.5z"></path><path d="M24 32.5c5.24 0 9.5-4.26 9.5-9.5s-4.26-9.5-9.5-9.5-9.5 4.26-9.5 9.5 4.26 9.5 9.5 9.5zm0-16c3.58 0 6.5 2.92 6.5 6.5s-2.92 6.5-6.5 6.5-6.5-2.92-6.5-6.5 2.92-6.5 6.5-6.5z"></path></svg>