<svg xmlns="http://www.w3.org/2000/svg" xml:space="preserve" viewBox="0 0 512 512" id="xlsxfile">
  <path fill="#ffffff" fill-rule="evenodd" d="M107.074 25.467h242.005l71.522 72.375v350.033H107.074z" clip-rule="evenodd" class="colorffffff svgShape"></path>
  <path fill="#000000" d="M420.601 454.736H107.074c-3.79 0-6.86-3.07-6.86-6.861V25.467c0-3.79 3.07-6.86 6.86-6.86h242.005c1.831 0 3.593.734 4.877 2.037l71.526 72.375a6.869 6.869 0 0 1 1.982 4.822v350.033a6.86 6.86 0 0 1-6.863 6.862zm-306.667-13.72h299.812V100.66l-67.534-68.333H113.934v408.689z" class="color4c8cf9 svgShape"></path>
  <path fill="#000000" fill-rule="evenodd" d="M129.982 177.615h313.529v105.6H129.982z" clip-rule="evenodd" class="color4c8cf9 svgShape"></path>
  <path fill="#fefefe" d="M194.181 258.465h-11.189v-9.957h11.189v9.957zm30.766-36.185 10.389-19.915h12.921l-16.383 27.853 17.315 28.247h-13.452l-10.657-20.18-10.655 20.18h-13.052l16.916-28.247-16.517-27.853h12.919l10.256 19.915zm41.157 27.439h24.641v8.746h-35.696v-56.1h11.056v47.354zm61-5.919c0-2.147-.799-3.9-2.267-5.245-1.464-1.211-4.13-2.418-7.994-3.63-6.524-1.886-11.581-4.175-14.912-6.864-3.332-2.556-5.066-6.186-5.066-10.76 0-4.712 2.001-8.342 5.864-11.301 3.864-2.96 8.792-4.304 14.784-4.304 6.126 0 11.055 1.615 14.918 4.845 3.859 3.226 5.727 7.259 5.594 12.105l-.134.266h-10.787c0-2.551-.799-4.708-2.533-6.323-1.729-1.478-4.13-2.285-7.194-2.285-3.061 0-5.323.675-6.92 2.019-1.602 1.211-2.4 2.959-2.4 4.979 0 1.886.799 3.497 2.529 4.708 1.734 1.211 4.799 2.418 9.058 3.767 6.13 1.749 10.654 4.038 13.853 6.86 3.198 2.822 4.795 6.457 4.795 11.031 0 4.841-1.863 8.613-5.727 11.436-3.73 2.693-8.658 4.033-14.784 4.033-5.993 0-11.324-1.479-15.849-4.708-4.396-3.092-6.663-7.534-6.525-13.178l.129-.138h10.792c0 3.23 1.064 5.653 3.061 7.264 1.996 1.615 4.795 2.29 8.393 2.29 3.065 0 5.327-.542 6.924-1.886 1.6-1.209 2.398-2.824 2.398-4.981zm39.021-21.52 10.389-19.915h13.055l-16.515 27.853 17.446 28.247h-13.454l-10.654-20.18-10.783 20.18h-12.922l16.78-28.247-16.381-27.853h12.788l10.251 19.915z" class="colorfefefe svgShape"></path>
  <path fill="#000000" d="M263.424 146.413h-.092c-13.951-.023-26.076-5.135-32.432-13.669a6.86 6.86 0 0 1 11.003-8.195c3.728 5.006 11.949 8.126 21.452 8.14h.068c9.719 0 18.703-3.271 22.36-8.158a6.86 6.86 0 0 1 9.604-1.372 6.861 6.861 0 0 1 1.376 9.604c-6.312 8.423-19.082 13.65-33.339 13.65zM143.971 233.173h-.069c-41.671-.404-66.396-11.247-73.49-32.226-9.243-27.338 17.015-62.735 32.446-74.752 2.99-2.327 7.303-1.794 9.629 1.193a6.866 6.866 0 0 1-1.195 9.631c-13.264 10.329-34.524 39.879-27.88 59.532 6.254 18.501 36.419 22.668 60.624 22.902a6.86 6.86 0 0 1-.065 13.72z" class="color4c8cf9 svgShape"></path>
  <path fill="#e9e9e9" fill-rule="evenodd" d="M349.079 97.842h71.522l-71.522-72.375z" clip-rule="evenodd" class="colord4e4ff svgShape"></path>
  <path fill="#000000" d="M420.601 104.703H349.08c-3.79 0-6.86-3.07-6.86-6.86V25.467a6.858 6.858 0 1 1 11.737-4.823l71.526 72.375a6.859 6.859 0 0 1 1.45 7.465 6.853 6.853 0 0 1-6.332 4.219zm-64.663-13.72h48.239L355.938 42.17v48.813zM239.341 493.393c-.376 0-.757-.027-1.143-.092l-22.509-3.766a6.863 6.863 0 0 1-5.727-6.77v-34.891a6.858 6.858 0 0 1 6.86-6.859c3.791 0 6.86 3.07 6.86 6.859v29.082l16.783 2.809a6.86 6.86 0 0 1 5.632 7.9 6.856 6.856 0 0 1-6.756 5.728zM325.25 493.393a6.88 6.88 0 0 1-1.146-.092l-22.507-3.766a6.86 6.86 0 0 1-5.727-6.77v-34.891c0-3.789 3.069-6.859 6.859-6.859s6.86 3.07 6.86 6.859v29.082l16.78 2.809a6.863 6.863 0 0 1 5.635 7.9 6.857 6.857 0 0 1-6.754 5.728z" class="color4c8cf9 svgShape"></path>
  <path fill="#000000" fill-rule="evenodd" d="M290.873 65.154c6.259-1.753 13.188.94 16.519 6.86a14.87 14.87 0 0 1-5.332 20.313c-7.057 4.033-15.978 1.61-19.979-5.516-3.193-5.515-2.396-12.38 1.469-16.95 1.331 1.748 3.726 2.418 5.727 1.211 1.999-1.21 2.798-3.766 1.596-5.918zM228.811 65.154c6.259-1.753 13.185.94 16.649 6.86 3.994 7.13 1.597 16.143-5.462 20.313-6.924 4.033-15.982 1.61-19.979-5.516-3.196-5.515-2.397-12.38 1.466-16.95 1.331 1.748 3.861 2.418 5.727 1.211 2.131-1.21 2.796-3.766 1.599-5.918z" clip-rule="evenodd" class="color4c8cf9 svgShape"></path>
  <path fill="#e9e9e9" fill-rule="evenodd" d="M209.098 359.762v11.976h181.54v-32.019h-181.54z" clip-rule="evenodd" class="colord4e4ff svgShape"></path>
  <path fill="#000000" d="M390.638 346.578H137.042a6.856 6.856 0 0 1-6.86-6.859v-32.02a6.858 6.858 0 0 1 6.86-6.859h253.596c3.79 0 6.854 3.07 6.854 6.859v32.02a6.852 6.852 0 0 1-6.854 6.859zm-246.737-13.719h239.871V314.56H143.901v18.299z" class="color4c8cf9 svgShape"></path>
  <path fill="#000000" d="M390.638 378.598H137.042a6.857 6.857 0 0 1-6.86-6.859v-32.02a6.858 6.858 0 0 1 6.86-6.859h253.596c3.79 0 6.854 3.07 6.854 6.859v32.02a6.854 6.854 0 0 1-6.854 6.859zm-246.737-13.719h239.871v-18.301H143.901v18.301z" class="color4c8cf9 svgShape"></path>
  <path fill="#000000" d="M390.638 410.611H137.042a6.856 6.856 0 0 1-6.86-6.859v-32.014a6.857 6.857 0 0 1 6.86-6.859h253.596a6.852 6.852 0 0 1 6.854 6.859v32.014a6.852 6.852 0 0 1-6.854 6.859zm-246.737-13.718h239.871v-18.295H143.901v18.295z" class="color4c8cf9 svgShape"></path>
  <path fill="#000000" d="M318.579 410.611H209.098a6.857 6.857 0 0 1-6.86-6.859v-96.053a6.858 6.858 0 0 1 6.86-6.859h109.481c3.79 0 6.859 3.07 6.859 6.859v96.053a6.856 6.856 0 0 1-6.859 6.859zm-102.621-13.718h95.761v-82.332h-95.761v82.332z" class="color4c8cf9 svgShape"></path>
</svg>
